<svg xmlns="http://www.w3.org/2000/svg" xmlns:xlink="http://www.w3.org/1999/xlink" version="1.1" width="256" height="256" viewBox="0 0 256 256" xml:space="preserve">

<defs>
</defs>
<g style="stroke: none; stroke-width: 0; stroke-dasharray: none; stroke-linecap: butt; stroke-linejoin: miter; stroke-miterlimit: 10; fill: none; fill-rule: nonzero; opacity: 1;" transform="translate(1.4065934065934016 1.4065934065934016) scale(2.81 2.81)" >
	<path d="M 57.785 45.059 c -10.757 0.018 -21.507 -0.451 -32.221 -1.238 l -0.011 -0.001 c -0.021 -0.001 -0.042 -0.003 -0.064 -0.003 c -0.827 -0.022 -1.516 0.63 -1.538 1.457 c -0.022 0.827 0.63 1.516 1.457 1.538 c 10.81 0.292 21.623 0.262 32.413 -0.256 c 5.394 -0.256 10.782 -0.626 16.154 -1.153 c 5.37 -0.524 10.728 -1.22 16.025 -2.214 c -5.338 0.747 -10.707 1.193 -16.082 1.467 C 68.544 44.933 63.163 45.053 57.785 45.059 z" style="stroke: none; stroke-width: 1; stroke-dasharray: none; stroke-linecap: butt; stroke-linejoin: miter; stroke-miterlimit: 10; fill: rgb(0,0,0); fill-rule: nonzero; opacity: 1;" transform=" matrix(1 0 0 1 0 0) " stroke-linecap="round" />
	<path d="M 25.245 31.203 c -2.468 0.223 -4.939 0.634 -7.345 1.329 c -2.404 0.691 -4.758 1.609 -6.961 2.809 c -2.207 1.188 -4.262 2.645 -6.095 4.314 c -1.837 1.666 -3.442 3.552 -4.819 5.563 c -0.037 0.056 -0.034 0.134 0.013 0.186 c 0.056 0.062 0.151 0.067 0.213 0.011 c 0.918 -0.796 1.817 -1.591 2.754 -2.336 c 0.952 -0.728 1.905 -1.436 2.884 -2.096 c 1.964 -1.315 4.024 -2.436 6.162 -3.354 c 2.142 -0.911 4.354 -1.631 6.619 -2.164 c 1.38 -0.324 2.778 -0.588 4.184 -0.826 c -0.524 1.241 -1.001 2.5 -1.436 3.77 c -0.753 2.176 -1.372 4.388 -1.896 6.613 l -0.012 0.052 c -0.053 0.224 -0.036 0.467 0.065 0.694 c 1.687 3.802 3.558 7.587 6.011 11.029 c -3.975 -0.555 -7.896 -1.575 -11.647 -3.071 c -4.391 -1.759 -8.543 -4.177 -12.231 -7.201 c -0.061 -0.05 -0.152 -0.045 -0.206 0.014 c -0.056 0.061 -0.051 0.156 0.01 0.212 c 7.093 6.47 16.263 10.757 25.921 12.048 c 0.216 0.028 0.446 -0.023 0.635 -0.163 c 0.39 -0.287 0.473 -0.835 0.186 -1.225 l -0.023 -0.031 c -2.687 -3.651 -4.622 -7.847 -6.326 -12.118 c 0.581 -2.01 1.249 -3.988 2.026 -5.916 c 0.828 -2.039 1.796 -4.008 2.821 -5.938 c 0.133 -0.25 0.198 -0.54 0.17 -0.843 c -0.075 -0.83 -0.808 -1.442 -1.638 -1.367 L 25.245 31.203 z" style="stroke: none; stroke-width: 1; stroke-dasharray: none; stroke-linecap: butt; stroke-linejoin: miter; stroke-miterlimit: 10; fill: rgb(0,0,0); fill-rule: nonzero; opacity: 1;" transform=" matrix(1 0 0 1 0 0) " stroke-linecap="round" />
</g>
</svg>